<?xml version="1.0" standalone="no"?>
<!DOCTYPE svg PUBLIC "-//W3C//DTD SVG 20010904//EN"
 "http://www.w3.org/TR/2001/REC-SVG-20010904/DTD/svg10.dtd">
<svg version="1.0" xmlns="http://www.w3.org/2000/svg"
 width="225.000000pt" height="225.000000pt" viewBox="0 0 225.000000 225.000000"
 preserveAspectRatio="xMidYMid meet">

<g transform="translate(0.000000,225.000000) scale(0.100000,-0.100000)"
fill="#000000" stroke="none">
<path d="M1352 1310 c-14 -23 -15 -30 -3 -30 8 0 24 41 18 47 -2 1 -8 -7 -15
-17z"/>
<path d="M483 1274 c0 -7 4 -11 9 -8 5 4 16 -2 24 -12 14 -18 15 -18 5 2 -12
26 -38 38 -38 18z"/>
<path d="M546 1275 c10 -8 26 -14 34 -14 9 0 4 6 -10 14 -33 19 -49 19 -24 0z"/>
<path d="M1250 1280 c0 -5 5 -10 10 -10 6 0 10 5 10 10 0 6 -4 10 -10 10 -5 0
-10 -4 -10 -10z"/>
<path d="M448 1273 c7 -3 16 -2 19 1 4 3 -2 6 -13 5 -11 0 -14 -3 -6 -6z"/>
<path d="M415 1261 c-3 -5 -2 -12 3 -15 5 -3 9 1 9 9 0 17 -3 19 -12 6z"/>
<path d="M1326 1253 c-6 -14 -5 -15 5 -6 7 7 10 15 7 18 -3 3 -9 -2 -12 -12z"/>
<path d="M455 1250 c16 -7 16 -9 4 -9 -9 -1 -20 -8 -23 -17 -9 -24 -7 -31 4
-14 9 13 11 13 21 0 9 -13 10 -13 5 2 -3 11 2 19 17 24 21 7 21 7 2 15 -28 11
-56 10 -30 -1z"/>
<path d="M1245 1250 c3 -5 8 -10 11 -10 2 0 4 5 4 10 0 6 -5 10 -11 10 -5 0
-7 -4 -4 -10z"/>
<path d="M1210 1242 c0 -5 6 -14 13 -21 10 -11 9 -13 -1 -7 -17 10 -34 -39
-29 -83 l4 -36 1 38 c1 24 6 36 12 32 7 -4 9 3 5 22 -6 27 -6 27 10 8 15 -19
16 -19 13 12 -1 18 -8 35 -15 37 -7 3 -13 2 -13 -2z"/>
<path d="M620 1221 c0 -20 17 -37 27 -28 7 8 -7 47 -18 47 -5 0 -9 -9 -9 -19z"/>
<path d="M1351 1215 c-1 -16 -4 -41 -6 -55 -5 -22 -4 -22 4 -5 l10 20 1 -20
c1 -11 3 -15 6 -10 2 6 0 30 -5 55 -7 37 -9 39 -10 15z"/>
<path d="M790 1208 c0 -13 -3 -34 -5 -48 -3 -14 -3 -19 1 -12 3 6 9 10 12 8 4
-2 7 14 8 35 1 21 -3 39 -7 39 -5 0 -9 -10 -9 -22z"/>
<path d="M1307 1195 c-21 -43 -21 -50 -3 -33 8 7 11 17 8 22 -3 5 2 7 11 3 18
-7 22 9 9 31 -6 8 -13 1 -25 -23z"/>
<path d="M1687 1211 c-3 -12 -3 -20 0 -17 11 11 32 -29 27 -50 -3 -12 -1 -25
5 -29 6 -3 9 -11 6 -16 -4 -5 -1 -9 5 -9 8 0 9 7 5 18 -4 9 -9 26 -9 37 -1 11
-9 36 -17 55 -15 33 -16 34 -22 11z"/>
<path d="M1260 1196 c0 -13 -5 -26 -11 -28 -8 -3 -7 -8 2 -18 8 -8 14 -21 15
-27 1 -7 2 -21 3 -31 0 -10 7 -25 14 -33 6 -8 11 -12 10 -10 -1 2 1 11 6 20
15 29 23 77 12 66 -6 -6 -12 -20 -14 -32 -2 -13 -7 -26 -11 -30 -5 -5 -6 4 -3
18 4 16 1 33 -8 45 -16 21 -20 38 -7 30 5 -3 6 8 4 25 -5 35 -12 38 -12 5z"/>
<path d="M1611 1183 c-14 -49 -14 -60 2 -66 6 -2 9 -8 4 -12 -4 -5 -13 -3 -19
3 -7 7 -17 12 -22 12 -6 0 0 -7 12 -16 21 -15 32 -42 12 -29 -6 3 -7 -1 -4 -9
9 -25 24 -19 24 9 0 28 27 45 40 25 5 -8 10 -9 14 -1 4 6 -5 13 -21 17 -27 7
-43 20 -43 37 0 5 5 5 11 1 7 -4 10 -1 7 7 -3 8 -1 24 3 37 5 13 5 22 -1 22
-5 0 -14 -17 -19 -37z"/>
<path d="M585 1180 c-4 -12 -5 -24 -2 -27 3 -2 8 5 12 17 4 12 5 24 2 27 -3 2
-8 -5 -12 -17z"/>
<path d="M876 1185 c-3 -8 -12 -15 -19 -15 -16 0 -67 -45 -67 -59 0 -5 9 -9
19 -8 15 1 17 4 9 14 -9 12 -5 17 13 15 3 -1 21 15 39 33 19 19 29 35 23 35
-6 0 -13 -7 -17 -15z"/>
<path d="M466 1177 c3 -10 9 -15 12 -12 3 3 0 11 -7 18 -10 9 -11 8 -5 -6z"/>
<path d="M556 1175 c-9 -26 -7 -32 5 -12 6 10 9 21 6 23 -2 3 -7 -2 -11 -11z"/>
<path d="M1512 1174 c-16 -8 -19 -13 -10 -16 10 -4 10 -8 1 -19 -8 -10 -9 -19
-1 -29 8 -12 9 -12 4 3 -8 24 9 21 27 -5 10 -15 15 -18 14 -8 -1 38 4 61 13
55 5 -3 7 0 4 9 -8 21 -25 24 -52 10z m26 -25 c2 -18 -2 -28 -8 -24 -8 5 -8
28 -1 53 3 10 7 -3 9 -29z"/>
<path d="M1418 1163 c-9 -10 -19 -29 -23 -42 -6 -21 -5 -22 8 -10 8 8 13 17
10 22 -2 4 -1 13 3 19 6 9 11 5 16 -12 7 -24 8 -24 4 3 -4 30 3 34 24 15 12
-11 12 -10 1 5 -7 9 -17 17 -21 17 -4 0 -14 -8 -22 -17z"/>
<path d="M720 1155 c0 -8 -6 -13 -12 -11 -7 1 -10 1 -6 -1 4 -2 -2 -13 -13
-24 -23 -23 -24 -30 -3 -55 13 -16 15 -16 10 -2 -3 10 -1 20 4 23 6 4 10 12
10 18 0 7 -4 6 -10 -3 -5 -8 -12 -12 -15 -8 -8 8 46 58 62 58 7 0 13 5 13 10
0 6 -9 10 -20 10 -11 0 -20 -7 -20 -15z"/>
<path d="M1098 1158 c-4 -10 -5 -26 -1 -35 3 -10 3 -15 -2 -11 -4 4 -14 1 -21
-7 -18 -18 -18 -31 -1 -16 8 6 17 8 20 5 8 -8 20 40 15 63 -3 17 -4 17 -10 1z"/>
<path d="M441 1144 c0 -11 3 -14 6 -6 3 7 2 16 -1 19 -3 4 -6 -2 -5 -13z"/>
<path d="M962 1140 c-10 -16 -10 -20 0 -18 7 2 13 -6 14 -17 2 -46 4 -55 13
-55 15 0 42 31 36 41 -4 5 -1 9 5 9 6 0 10 -8 8 -17 -2 -10 3 -17 10 -15 6 1
12 -2 12 -8 0 -13 37 -13 45 -1 3 5 1 12 -4 15 -5 4 -12 0 -15 -6 -3 -9 -11
-5 -26 11 -14 17 -18 27 -10 35 5 5 10 15 10 21 0 5 -6 3 -13 -6 -7 -8 -20
-18 -29 -22 -10 -3 -15 -12 -12 -21 3 -8 0 -17 -7 -22 -8 -5 -11 -2 -6 8 3 9
0 26 -7 40 -7 13 -11 29 -8 36 6 18 -2 14 -16 -8z"/>
<path d="M1691 1144 c0 -11 3 -14 6 -6 3 7 2 16 -1 19 -3 4 -6 -2 -5 -13z"/>
<path d="M481 1134 c0 -11 3 -14 6 -6 3 7 2 16 -1 19 -3 4 -6 -2 -5 -13z"/>
<path d="M639 1144 c-3 -5 -6 -25 -8 -44 -2 -34 -2 -34 13 -13 11 15 13 28 8
44 -5 12 -11 18 -13 13z"/>
<path d="M1787 1126 c-20 -13 -34 -26 -31 -29 4 -3 -5 -12 -20 -18 -14 -7 -26
-16 -26 -21 0 -5 -5 -6 -12 -2 -7 5 -8 3 -3 -6 6 -10 4 -12 -8 -7 -20 8 -43
-18 -26 -29 7 -4 9 -3 5 4 -3 6 -2 13 4 17 5 3 10 1 10 -5 0 -6 27 12 60 39
33 27 67 54 77 60 10 5 16 12 13 14 -3 3 -22 -5 -43 -17z"/>
<path d="M515 1130 c-3 -6 1 -7 9 -4 18 7 21 14 7 14 -6 0 -13 -4 -16 -10z"/>
<path d="M552 1128 c-7 -7 -12 -18 -12 -25 0 -7 5 -13 12 -13 8 0 9 -3 2 -10
-13 -13 -46 -2 -37 13 4 6 1 7 -7 2 -10 -6 -7 -12 11 -26 13 -10 26 -14 27 -9
4 12 23 13 21 3 -3 -21 2 -33 16 -33 8 0 15 -6 15 -12 0 -9 3 -9 9 1 10 16 -7
51 -24 51 -6 0 -16 10 -24 22 -12 19 -11 23 5 35 10 7 13 13 8 13 -6 0 -15 -5
-22 -12z m49 -85 c13 -15 12 -15 -8 -4 -24 12 -29 21 -14 21 5 0 15 -7 22 -17z"/>
<path d="M1212 1120 c0 -14 2 -19 5 -12 2 6 2 18 0 25 -3 6 -5 1 -5 -13z"/>
<path d="M1467 1133 c-10 -9 -9 -41 2 -47 4 -3 8 8 7 24 -1 17 -1 30 -2 30 0
0 -4 -3 -7 -7z"/>
<path d="M1362 1105 c0 -16 2 -22 5 -12 2 9 2 23 0 30 -3 6 -5 -1 -5 -18z"/>
<path d="M451 1110 c0 -8 4 -22 9 -30 12 -18 12 -2 0 25 -6 13 -9 15 -9 5z"/>
<path d="M1697 1101 c3 -12 9 -21 13 -21 12 0 5 33 -8 38 -6 2 -8 -5 -5 -17z"/>
<path d="M1342 1085 c0 -16 2 -22 5 -12 2 9 2 23 0 30 -3 6 -5 -1 -5 -18z"/>
<path d="M1440 1095 c0 -8 -6 -13 -12 -11 -7 1 -10 1 -5 -1 15 -9 6 -22 -10
-16 -10 3 -15 3 -12 -1 11 -12 57 -17 64 -6 4 6 1 9 -7 8 -8 -2 -12 5 -10 20
2 12 1 22 -2 22 -3 0 -6 -7 -6 -15z"/>
<path d="M480 1081 c0 -6 4 -13 10 -16 6 -3 7 1 4 9 -7 18 -14 21 -14 7z"/>
<path d="M792 1076 c-1 -6 -4 -24 -7 -41 -5 -29 -1 -23 17 24 6 17 12 20 21
13 8 -7 18 -7 27 -2 8 6 11 10 5 11 -48 5 -62 4 -63 -5z"/>
<path d="M1181 1028 c-2 -69 3 -73 17 -12 6 29 6 46 -3 57 -10 14 -12 6 -14
-45z"/>
<path d="M1200 1080 c0 -5 5 -10 11 -10 5 0 7 5 4 10 -3 6 -8 10 -11 10 -2 0
-4 -4 -4 -10z"/>
<path d="M1507 1084 c-4 -4 -7 -17 -7 -28 1 -19 1 -20 11 -3 11 19 8 43 -4 31z"/>
<path d="M712 1054 c-7 -14 -8 -23 -2 -19 15 9 32 45 22 45 -5 0 -14 -12 -20
-26z"/>
<path d="M750 1069 c0 -5 5 -7 10 -4 6 3 10 8 10 11 0 2 -4 4 -10 4 -5 0 -10
-5 -10 -11z"/>
<path d="M1548 1045 c9 -19 17 -33 18 -32 7 6 -13 62 -22 64 -7 1 -5 -11 4
-32z"/>
<path d="M1356 1053 c-6 -14 -5 -15 5 -6 7 7 10 15 7 18 -3 3 -9 -2 -12 -12z"/>
<path d="M641 1044 c0 -11 3 -14 6 -6 3 7 2 16 -1 19 -3 4 -6 -2 -5 -13z"/>
<path d="M461 1034 c0 -12 7 -25 16 -28 13 -5 14 -9 5 -15 -9 -5 -10 -15 -3
-32 l9 -24 5 25 c3 14 5 40 5 59 -1 29 -3 31 -14 17 -11 -16 -13 -16 -17 1 -4
15 -5 15 -6 -3z"/>
<path d="M849 1027 c10 -28 31 -34 31 -9 0 11 -8 22 -19 25 -16 4 -18 1 -12
-16z"/>
<path d="M1602 1020 c0 -14 2 -19 5 -12 2 6 2 18 0 25 -3 6 -5 1 -5 -13z"/>
<path d="M1350 1025 c0 -6 7 -20 15 -31 8 -12 11 -24 8 -28 -3 -3 -1 -6 5 -6
13 0 14 13 2 50 -4 14 -9 18 -9 10 -1 -13 -2 -13 -11 0 -5 8 -10 10 -10 5z"/>
<path d="M627 1003 c-3 -5 10 -27 30 -48 19 -22 30 -33 24 -24 -6 9 -7 20 -3
24 4 5 2 5 -4 2 -10 -6 -25 13 -28 35 -2 12 -14 19 -19 11z"/>
<path d="M1599 958 c-53 -45 -45 -50 16 -8 49 34 60 47 41 47 -6 0 -32 -18
-57 -39z"/>
<path d="M870 979 c0 -5 5 -7 10 -4 6 3 10 8 10 11 0 2 -4 4 -10 4 -5 0 -10
-5 -10 -11z"/>
</g>
</svg>
